<?xml version="1.0" encoding="UTF-8"?>
<!-- Derived from Mark <https://github.com/logos> on 2021-03-15 by converting the EPS to PDF with `pstopdf`, cropping to the small logo, and then running `pdftocairo -svg` on the result.-->
<svg xmlns="http://www.w3.org/2000/svg" xmlns:xlink="http://www.w3.org/1999/xlink" width="39.9372pt" height="37.8226pt" viewBox="0 0 39.9372 37.8226" version="1.2">
<g id="surface1">
<path style=" stroke:none;fill-rule:evenodd;fill:rgb(10.430908%,9.358215%,8.999634%);fill-opacity:1;" d="M 19.84375 2.140625 C 10.890625 2.140625 3.632812 9.402344 3.632812 18.355469 C 3.632812 25.519531 8.277344 31.59375 14.71875 33.738281 C 15.53125 33.886719 15.828125 33.386719 15.828125 32.957031 C 15.828125 32.574219 15.8125 31.554688 15.804688 30.199219 C 11.296875 31.179688 10.34375 28.027344 10.34375 28.027344 C 9.605469 26.152344 8.542969 25.65625 8.542969 25.65625 C 7.070312 24.648438 8.65625 24.667969 8.65625 24.667969 C 10.28125 24.785156 11.136719 26.339844 11.136719 26.339844 C 12.585938 28.816406 14.933594 28.101562 15.855469 27.6875 C 16.003906 26.640625 16.421875 25.925781 16.886719 25.519531 C 13.285156 25.113281 9.5 23.71875 9.5 17.507812 C 9.5 15.738281 10.132812 14.289062 11.171875 13.15625 C 11.003906 12.746094 10.445312 11.097656 11.328125 8.867188 C 11.328125 8.867188 12.691406 8.429688 15.789062 10.527344 C 17.082031 10.167969 18.46875 9.988281 19.847656 9.980469 C 21.222656 9.988281 22.609375 10.167969 23.90625 10.527344 C 27 8.429688 28.359375 8.867188 28.359375 8.867188 C 29.246094 11.097656 28.6875 12.746094 28.523438 13.15625 C 29.5625 14.289062 30.1875 15.738281 30.1875 17.507812 C 30.1875 23.734375 26.398438 25.105469 22.785156 25.507812 C 23.367188 26.007812 23.886719 26.996094 23.886719 28.511719 C 23.886719 30.675781 23.867188 32.425781 23.867188 32.957031 C 23.867188 33.390625 24.160156 33.898438 24.980469 33.738281 C 31.417969 31.589844 36.058594 25.515625 36.058594 18.355469 C 36.058594 9.402344 28.800781 2.140625 19.84375 2.140625 "/>
</g>
</svg>
